<?xml version="1.0" encoding="utf-8"?>
<svg width="50px" height="50px" viewBox="0 0 50 50" version="1.1" xmlns:xlink="http://www.w3.org/1999/xlink" xmlns="http://www.w3.org/2000/svg">
  <defs>
    <path d="M50 0L50 0L50 50L0 50L0 0L50 0Z" id="path_1" />
    <clipPath id="clip_1">
      <use xlink:href="#path_1" clip-rule="evenodd" fill-rule="evenodd" />
    </clipPath>
  </defs>
  <g id="Done" clip-path="url(#clip_1)">
    <path d="M50 0L50 0L50 50L0 50L0 0L50 0Z" id="Done" fill="none" stroke="none" />
    <path d="M41.9375 8.625C41.2734 8.64844 40.6641 9 40.3125 9.5625L21.5 38.3438L9.3125 27.8125C8.78906 27.2695 8.00391 27.0664 7.28125 27.293C6.5625 27.5156 6.02734 28.125 5.90234 28.8672C5.77734 29.6133 6.07812 30.3633 6.6875 30.8125L20.625 42.875C21.0625 43.2461 21.6406 43.4102 22.207 43.3281C22.7773 43.2422 23.2813 42.918 23.5938 42.4375L43.6875 11.75C44.1172 11.1211 44.1523 10.3086 43.7813 9.64453C43.4102 8.98438 42.6953 8.58984 41.9375 8.625L41.9375 8.625Z" id="Shape" fill="#000000" stroke="none" />
  </g>
</svg>